<svg width="1512" height="1143" viewBox="0 0 1512 1143" fill="none" xmlns="http://www.w3.org/2000/svg">
<g clip-path="url(#clip0_1131_595)">
<path d="M-339.902 675.617L-132.605 885.641L-131.241 468.32L-277.167 371.49L-300.351 259.659L-65.7786 387.856V533.782L-12.5905 614.246L44.6889 533.782L48.7803 385.128L280.626 262.387L251.986 375.582L140.155 469.684V881.55L332.45 675.617L318.812 510.598L280.626 465.592L352.907 404.221L372 66L-12.5905 271.933L-404 68.7276L-382.179 405.585L-300.351 468.32L-339.902 511.961V675.617Z" stroke="#E26500" stroke-opacity="0.08" stroke-width="2.72759"/>
<path d="M1184.1 675.617L1391.4 885.641L1392.76 468.32L1246.83 371.49L1223.65 259.659L1458.22 387.856V533.782L1511.41 614.246L1568.69 533.782L1572.78 385.128L1804.63 262.387L1775.99 375.582L1664.15 469.684V881.55L1856.45 675.617L1842.81 510.598L1804.63 465.592L1876.91 404.221L1896 66L1511.41 271.933L1120 68.7276L1141.82 405.585L1223.65 468.32L1184.1 511.961V675.617Z" stroke="#E26500" stroke-opacity="0.08" stroke-width="2.72759"/>
</g>
<defs>
<clipPath id="clip0_1131_595">
<rect width="1512" height="1143" fill="white"/>
</clipPath>
</defs>
</svg>
